<svg width="64" height="64" viewBox="0 0 38 38" fill="none" xmlns="http://www.w3.org/2000/svg">
  <defs>
    <clipPath id="curve-clip">
      <path d="M-2 -2 H42 V42 H-2 Z M8 2H30C33.3137 2 36 4.68629 36 8V30C36 33.3137 33.3137 36 30 36H8C4.68629 36 2 33.3137 2 30V8C2 4.68629 4.68629 2 8 2Z" clip-rule="evenodd"/>
    </clipPath>
  </defs>
  <path d="M8 2H30C33.3137 2 36 4.68629 36 8V30C36 33.3137 33.3137 36 30 36H8C4.68629 36 2 33.3137 2 30V8C2 4.68629 4.68629 2 8 2Z" fill="#1D4ED8"/>
  <path d="M2 23 C2 31 5.5 36 14 36" stroke="#F05A37" stroke-width="5.5" stroke-linecap="round" fill="none" clip-path="url(#curve-clip)"/>
</svg>
